<mxfile host="app.diagrams.net" modified="2023-04-22T08:57:28.374Z" agent="Mozilla/5.0 (Windows NT 10.0; Win64; x64; rv:109.0) Gecko/20100101 Firefox/112.0" etag="hYwcv_cxdqynoam5qu1a" version="21.1.8" pages="2">
  <diagram name="Diagrama Clases" id="LudH4D9Q-J-WkSKnpcCK">
    <mxGraphModel dx="3400" dy="2137" grid="0" gridSize="10" guides="1" tooltips="1" connect="1" arrows="1" fold="1" page="0" pageScale="1" pageWidth="850" pageHeight="1100" math="0" shadow="0">
      <root>
        <mxCell id="0" />
        <mxCell id="1" parent="0" />
        <mxCell id="jyAbrdyMVyRn_Ra9y4lu-1" value="Juego" style="swimlane;fontStyle=1;align=center;verticalAlign=top;childLayout=stackLayout;horizontal=1;startSize=26;horizontalStack=0;resizeParent=1;resizeParentMax=0;resizeLast=0;collapsible=1;marginBottom=0;whiteSpace=wrap;html=1;" parent="1" vertex="1">
          <mxGeometry x="171" y="-28" width="392" height="246" as="geometry" />
        </mxCell>
        <mxCell id="jyAbrdyMVyRn_Ra9y4lu-2" value="&lt;div&gt;- listaPartidas: List&amp;lt;Partidas&amp;gt;&lt;/div&gt;&lt;div&gt;- listaRanking: List&amp;lt;Partidas&amp;gt;&lt;/div&gt;&lt;div&gt;- consola: &amp;lt;Pantalla&amp;gt;&lt;br&gt;&lt;/div&gt;" style="text;strokeColor=none;fillColor=none;align=left;verticalAlign=top;spacingLeft=4;spacingRight=4;overflow=hidden;rotatable=0;points=[[0,0.5],[1,0.5]];portConstraint=eastwest;whiteSpace=wrap;html=1;" parent="jyAbrdyMVyRn_Ra9y4lu-1" vertex="1">
          <mxGeometry y="26" width="392" height="47" as="geometry" />
        </mxCell>
        <mxCell id="jyAbrdyMVyRn_Ra9y4lu-3" value="" style="line;strokeWidth=1;fillColor=none;align=left;verticalAlign=middle;spacingTop=-1;spacingLeft=3;spacingRight=3;rotatable=0;labelPosition=right;points=[];portConstraint=eastwest;strokeColor=inherit;" parent="jyAbrdyMVyRn_Ra9y4lu-1" vertex="1">
          <mxGeometry y="73" width="392" height="17" as="geometry" />
        </mxCell>
        <mxCell id="jyAbrdyMVyRn_Ra9y4lu-44" value="&lt;div&gt;+ NuevaSesion()&lt;/div&gt;&lt;div&gt;+ Menu()&lt;/div&gt;&lt;div&gt;+ ListarPartidas()&lt;/div&gt;&lt;div&gt;+ CrearPartida(int numJugadores)&lt;/div&gt;&lt;div&gt;+ RankingPartidas()&lt;/div&gt;&lt;div&gt;+ BuscarPartida(string nombre): &amp;lt;Partida&amp;gt;&lt;/div&gt;&lt;div&gt;&lt;span style=&quot;background-color: initial;&quot;&gt;+ InformacionPartida(int indice, Partida partida, int mostrarGanador): str&lt;/span&gt;&lt;br&gt;&lt;/div&gt;&lt;div&gt;+ GuardarFichero(List&amp;lt;Partida&amp;gt; listadoPartidas, string nombreFichero)&lt;/div&gt;&lt;div&gt;+ CargarFichero(string nombreFichero bool ranking)&lt;/div&gt;&lt;div&gt;+ JugarPartida(Partida partida)&lt;/div&gt;" style="text;strokeColor=none;fillColor=none;align=left;verticalAlign=top;spacingLeft=4;spacingRight=4;overflow=hidden;rotatable=0;points=[[0,0.5],[1,0.5]];portConstraint=eastwest;whiteSpace=wrap;html=1;" parent="jyAbrdyMVyRn_Ra9y4lu-1" vertex="1">
          <mxGeometry y="90" width="392" height="156" as="geometry" />
        </mxCell>
        <mxCell id="jyAbrdyMVyRn_Ra9y4lu-5" value="Pantalla" style="swimlane;fontStyle=1;align=center;verticalAlign=top;childLayout=stackLayout;horizontal=1;startSize=26;horizontalStack=0;resizeParent=1;resizeParentMax=0;resizeLast=0;collapsible=1;marginBottom=0;whiteSpace=wrap;html=1;" parent="1" vertex="1">
          <mxGeometry x="629" y="-28" width="348" height="203" as="geometry" />
        </mxCell>
        <mxCell id="jyAbrdyMVyRn_Ra9y4lu-6" value="- nombreJuego : str" style="text;strokeColor=none;fillColor=none;align=left;verticalAlign=top;spacingLeft=4;spacingRight=4;overflow=hidden;rotatable=0;points=[[0,0.5],[1,0.5]];portConstraint=eastwest;whiteSpace=wrap;html=1;" parent="jyAbrdyMVyRn_Ra9y4lu-5" vertex="1">
          <mxGeometry y="26" width="348" height="24" as="geometry" />
        </mxCell>
        <mxCell id="jyAbrdyMVyRn_Ra9y4lu-7" value="" style="line;strokeWidth=1;fillColor=none;align=left;verticalAlign=middle;spacingTop=-1;spacingLeft=3;spacingRight=3;rotatable=0;labelPosition=right;points=[];portConstraint=eastwest;strokeColor=inherit;" parent="jyAbrdyMVyRn_Ra9y4lu-5" vertex="1">
          <mxGeometry y="50" width="348" height="8" as="geometry" />
        </mxCell>
        <mxCell id="jyAbrdyMVyRn_Ra9y4lu-8" value="&lt;div&gt;&lt;font color=&quot;#333333&quot;&gt;+ Limpiar(int limpiar)&lt;/font&gt;&lt;/div&gt;&lt;div&gt;&lt;font color=&quot;#333333&quot;&gt;+ Salir (string[] opciones)&lt;/font&gt;&lt;/div&gt;&lt;div&gt;&lt;font color=&quot;#333333&quot;&gt;+ Continuar(int limpiar)&lt;/font&gt;&lt;/div&gt;&lt;div&gt;&lt;font color=&quot;#333333&quot;&gt;+ ImprimirConsola(string texto, int limpiar)&lt;/font&gt;&lt;/div&gt;&lt;div&gt;&lt;font color=&quot;#333333&quot;&gt;+ PintarMenu(string[] opciones, int limpiar, int salir): int&lt;/font&gt;&lt;/div&gt;&lt;div&gt;&lt;font color=&quot;#333333&quot;&gt;+ LeerString(string texto): str&lt;/font&gt;&lt;/div&gt;&lt;div&gt;&lt;font color=&quot;#333333&quot;&gt;+ LeerEntero(string texto, int limiteInf, int limiteSup): int&lt;/font&gt;&lt;/div&gt;&lt;div&gt;&lt;font color=&quot;#333333&quot;&gt;+ ComprobarEntero(int variable, int limiteInf, int limiteSup): int&lt;/font&gt;&lt;/div&gt;&lt;div&gt;&lt;font color=&quot;#333333&quot;&gt;+ PintarTablero(String[,] mapaGeneral)&lt;/font&gt;&lt;/div&gt;" style="text;strokeColor=none;fillColor=none;align=left;verticalAlign=top;spacingLeft=4;spacingRight=4;overflow=hidden;rotatable=0;points=[[0,0.5],[1,0.5]];portConstraint=eastwest;whiteSpace=wrap;html=1;" parent="jyAbrdyMVyRn_Ra9y4lu-5" vertex="1">
          <mxGeometry y="58" width="348" height="145" as="geometry" />
        </mxCell>
        <mxCell id="jyAbrdyMVyRn_Ra9y4lu-9" value="1" style="endArrow=open;html=1;endSize=12;startArrow=diamondThin;startSize=14;startFill=1;edgeStyle=orthogonalEdgeStyle;align=left;verticalAlign=bottom;rounded=0;entryX=-0.005;entryY=0.129;entryDx=0;entryDy=0;entryPerimeter=0;" parent="1" target="jyAbrdyMVyRn_Ra9y4lu-8" edge="1">
          <mxGeometry x="-1" y="3" relative="1" as="geometry">
            <mxPoint x="564" y="137.5" as="sourcePoint" />
            <mxPoint x="604" y="83" as="targetPoint" />
            <Array as="points">
              <mxPoint x="604" y="137" />
              <mxPoint x="604" y="49" />
            </Array>
          </mxGeometry>
        </mxCell>
        <mxCell id="jyAbrdyMVyRn_Ra9y4lu-10" value="&lt;i&gt;Partida&lt;/i&gt;" style="swimlane;dashed=1;fontStyle=1;align=center;verticalAlign=top;childLayout=stackLayout;horizontal=1;startSize=26;horizontalStack=0;resizeParent=1;resizeParentMax=0;resizeLast=0;collapsible=1;marginBottom=0;whiteSpace=wrap;html=1;" parent="1" vertex="1">
          <mxGeometry x="245" y="271" width="217" height="203" as="geometry" />
        </mxCell>
        <mxCell id="jyAbrdyMVyRn_Ra9y4lu-11" value="- finalizada: bool&lt;br&gt;- numMovimientos: int&lt;br&gt;- nombrePartida: str&lt;br&gt;- nombreGanador: str" style="text;strokeColor=none;fillColor=none;align=left;verticalAlign=top;spacingLeft=4;spacingRight=4;overflow=hidden;rotatable=0;points=[[0,0.5],[1,0.5]];portConstraint=eastwest;whiteSpace=wrap;html=1;" parent="jyAbrdyMVyRn_Ra9y4lu-10" vertex="1">
          <mxGeometry y="26" width="217" height="70" as="geometry" />
        </mxCell>
        <mxCell id="jyAbrdyMVyRn_Ra9y4lu-12" value="" style="line;strokeWidth=1;fillColor=none;align=left;verticalAlign=middle;spacingTop=-1;spacingLeft=3;spacingRight=3;rotatable=0;labelPosition=right;points=[];portConstraint=eastwest;strokeColor=inherit;" parent="jyAbrdyMVyRn_Ra9y4lu-10" vertex="1">
          <mxGeometry y="96" width="217" height="8" as="geometry" />
        </mxCell>
        <mxCell id="jyAbrdyMVyRn_Ra9y4lu-13" value="&lt;div&gt;&lt;font color=&quot;#333333&quot;&gt;+ InformacionJugadores(): str&lt;/font&gt;&lt;/div&gt;&lt;div&gt;&lt;font color=&quot;#333333&quot;&gt;+ NuevaPartida()&lt;/font&gt;&lt;/div&gt;&lt;div&gt;&lt;font color=&quot;#333333&quot;&gt;+ InformacioStatus(): str&lt;/font&gt;&lt;/div&gt;&lt;div&gt;&lt;font color=&quot;#333333&quot;&gt;+ Jugar(Pantalla consola)&lt;/font&gt;&lt;/div&gt;&lt;div&gt;&lt;font color=&quot;#333333&quot;&gt;+ SalirPartida(Pantalla consola): bool&lt;/font&gt;&lt;/div&gt;&lt;div&gt;+ EstadoPartida()&lt;br&gt;&lt;/div&gt;" style="text;strokeColor=none;fillColor=none;align=left;verticalAlign=top;spacingLeft=4;spacingRight=4;overflow=hidden;rotatable=0;points=[[0,0.5],[1,0.5]];portConstraint=eastwest;whiteSpace=wrap;html=1;" parent="jyAbrdyMVyRn_Ra9y4lu-10" vertex="1">
          <mxGeometry y="104" width="217" height="99" as="geometry" />
        </mxCell>
        <mxCell id="jyAbrdyMVyRn_Ra9y4lu-15" value="Tablero" style="swimlane;fontStyle=1;align=center;verticalAlign=top;childLayout=stackLayout;horizontal=1;startSize=26;horizontalStack=0;resizeParent=1;resizeParentMax=0;resizeLast=0;collapsible=1;marginBottom=0;whiteSpace=wrap;html=1;" parent="1" vertex="1">
          <mxGeometry x="371" y="998" width="292" height="245" as="geometry">
            <mxRectangle x="570" y="270" width="80" height="30" as="alternateBounds" />
          </mxGeometry>
        </mxCell>
        <mxCell id="jyAbrdyMVyRn_Ra9y4lu-16" value="&lt;div&gt;- mapa: string[,]&lt;/div&gt;&lt;div&gt;- mapaOponente: string[,]&lt;/div&gt;&lt;div&gt;- zonasTierra: List&amp;lt;Coordenadas&amp;gt;&lt;/div&gt;&lt;div&gt;- zonasBarcos: List&amp;lt;Coordenadas&amp;gt;&lt;/div&gt;&lt;div&gt;&lt;div&gt;- zonasBarcosOponentes: List&amp;lt;Coordenadas&amp;gt;&lt;/div&gt;&lt;/div&gt;&lt;div&gt;- consola: &amp;lt;Pantalla&amp;gt;&lt;/div&gt;" style="text;strokeColor=none;fillColor=none;align=left;verticalAlign=top;spacingLeft=4;spacingRight=4;overflow=hidden;rotatable=0;points=[[0,0.5],[1,0.5]];portConstraint=eastwest;whiteSpace=wrap;html=1;" parent="jyAbrdyMVyRn_Ra9y4lu-15" vertex="1">
          <mxGeometry y="26" width="292" height="98" as="geometry" />
        </mxCell>
        <mxCell id="jyAbrdyMVyRn_Ra9y4lu-17" value="" style="line;strokeWidth=1;fillColor=none;align=left;verticalAlign=middle;spacingTop=-1;spacingLeft=3;spacingRight=3;rotatable=0;labelPosition=right;points=[];portConstraint=eastwest;strokeColor=inherit;" parent="jyAbrdyMVyRn_Ra9y4lu-15" vertex="1">
          <mxGeometry y="124" width="292" height="8" as="geometry" />
        </mxCell>
        <mxCell id="jyAbrdyMVyRn_Ra9y4lu-18" value="+ RellenarTierra()&lt;br&gt;+ RellenarBarcos(int orientacion, string letraBarco, int longitud, Coordenadas coordenadas)&lt;br&gt;+ RellenarTableroInicial(string[,] mapa, string[,] mapaOponente)&lt;br&gt;+ PintarPropio()&lt;br&gt;+ PintarOponente()" style="text;strokeColor=none;fillColor=none;align=left;verticalAlign=top;spacingLeft=4;spacingRight=4;overflow=hidden;rotatable=0;points=[[0,0.5],[1,0.5]];portConstraint=eastwest;whiteSpace=wrap;html=1;" parent="jyAbrdyMVyRn_Ra9y4lu-15" vertex="1">
          <mxGeometry y="132" width="292" height="113" as="geometry" />
        </mxCell>
        <mxCell id="jyAbrdyMVyRn_Ra9y4lu-20" value="JuegoMultiple" style="swimlane;fontStyle=1;align=center;verticalAlign=top;childLayout=stackLayout;horizontal=1;startSize=26;horizontalStack=0;resizeParent=1;resizeParentMax=0;resizeLast=0;collapsible=1;marginBottom=0;whiteSpace=wrap;html=1;" parent="1" vertex="1">
          <mxGeometry x="373" y="527" width="190" height="149" as="geometry" />
        </mxCell>
        <mxCell id="jyAbrdyMVyRn_Ra9y4lu-21" value="&lt;div&gt;- jugador1: &amp;lt;Jugador&amp;gt;&lt;/div&gt;&lt;div&gt;- jugador2: &amp;lt;Jugador&amp;gt;&lt;br&gt;&lt;/div&gt;" style="text;strokeColor=none;fillColor=none;align=left;verticalAlign=top;spacingLeft=4;spacingRight=4;overflow=hidden;rotatable=0;points=[[0,0.5],[1,0.5]];portConstraint=eastwest;whiteSpace=wrap;html=1;" parent="jyAbrdyMVyRn_Ra9y4lu-20" vertex="1">
          <mxGeometry y="26" width="190" height="44" as="geometry" />
        </mxCell>
        <mxCell id="jyAbrdyMVyRn_Ra9y4lu-22" value="" style="line;strokeWidth=1;fillColor=none;align=left;verticalAlign=middle;spacingTop=-1;spacingLeft=3;spacingRight=3;rotatable=0;labelPosition=right;points=[];portConstraint=eastwest;strokeColor=inherit;" parent="jyAbrdyMVyRn_Ra9y4lu-20" vertex="1">
          <mxGeometry y="70" width="190" height="8" as="geometry" />
        </mxCell>
        <mxCell id="jyAbrdyMVyRn_Ra9y4lu-23" value="+ InformacionJugadores(): str&lt;br&gt;+ NuevaPartida()&lt;br&gt;&lt;div&gt;+ Jugar(Pantalla consola)&lt;/div&gt;+ EstadoPartida(): bool" style="text;strokeColor=none;fillColor=none;align=left;verticalAlign=top;spacingLeft=4;spacingRight=4;overflow=hidden;rotatable=0;points=[[0,0.5],[1,0.5]];portConstraint=eastwest;whiteSpace=wrap;html=1;" parent="jyAbrdyMVyRn_Ra9y4lu-20" vertex="1">
          <mxGeometry y="78" width="190" height="71" as="geometry" />
        </mxCell>
        <mxCell id="jyAbrdyMVyRn_Ra9y4lu-24" value="JuegoIndividual" style="swimlane;fontStyle=1;align=center;verticalAlign=top;childLayout=stackLayout;horizontal=1;startSize=26;horizontalStack=0;resizeParent=1;resizeParentMax=0;resizeLast=0;collapsible=1;marginBottom=0;whiteSpace=wrap;html=1;" parent="1" vertex="1">
          <mxGeometry x="163" y="527" width="180" height="150" as="geometry" />
        </mxCell>
        <mxCell id="jyAbrdyMVyRn_Ra9y4lu-25" value="&lt;div&gt;- jugadorHumano: &amp;lt;Jugador&amp;gt;&lt;/div&gt;&lt;div&gt;- jugadorAutomatico: &amp;lt;Jugador&amp;gt;&lt;br&gt;&lt;/div&gt;" style="text;strokeColor=none;fillColor=none;align=left;verticalAlign=top;spacingLeft=4;spacingRight=4;overflow=hidden;rotatable=0;points=[[0,0.5],[1,0.5]];portConstraint=eastwest;whiteSpace=wrap;html=1;" parent="jyAbrdyMVyRn_Ra9y4lu-24" vertex="1">
          <mxGeometry y="26" width="180" height="44" as="geometry" />
        </mxCell>
        <mxCell id="jyAbrdyMVyRn_Ra9y4lu-26" value="" style="line;strokeWidth=1;fillColor=none;align=left;verticalAlign=middle;spacingTop=-1;spacingLeft=3;spacingRight=3;rotatable=0;labelPosition=right;points=[];portConstraint=eastwest;strokeColor=inherit;" parent="jyAbrdyMVyRn_Ra9y4lu-24" vertex="1">
          <mxGeometry y="70" width="180" height="8" as="geometry" />
        </mxCell>
        <mxCell id="jyAbrdyMVyRn_Ra9y4lu-27" value="+ InformacionJugadores(): str&lt;br&gt;+ NuevaPartida()&lt;br&gt;&lt;div&gt;+ Jugar(Pantalla consola)&lt;/div&gt;&lt;div&gt;+ EstadoPartida(): bool&lt;br&gt;&lt;/div&gt;" style="text;strokeColor=none;fillColor=none;align=left;verticalAlign=top;spacingLeft=4;spacingRight=4;overflow=hidden;rotatable=0;points=[[0,0.5],[1,0.5]];portConstraint=eastwest;whiteSpace=wrap;html=1;" parent="jyAbrdyMVyRn_Ra9y4lu-24" vertex="1">
          <mxGeometry y="78" width="180" height="72" as="geometry" />
        </mxCell>
        <mxCell id="jyAbrdyMVyRn_Ra9y4lu-28" value="" style="endArrow=block;endSize=16;endFill=0;html=1;rounded=0;exitX=0.5;exitY=0;exitDx=0;exitDy=0;entryX=0.313;entryY=1;entryDx=0;entryDy=0;entryPerimeter=0;" parent="1" source="jyAbrdyMVyRn_Ra9y4lu-24" target="jyAbrdyMVyRn_Ra9y4lu-13" edge="1">
          <mxGeometry x="0.625" y="80" width="160" relative="1" as="geometry">
            <mxPoint x="223" y="529.53" as="sourcePoint" />
            <mxPoint x="303" y="495" as="targetPoint" />
            <mxPoint x="-1" as="offset" />
          </mxGeometry>
        </mxCell>
        <mxCell id="jyAbrdyMVyRn_Ra9y4lu-29" value="" style="endArrow=block;endSize=16;endFill=0;html=1;rounded=0;exitX=0.5;exitY=0;exitDx=0;exitDy=0;" parent="1" target="jyAbrdyMVyRn_Ra9y4lu-13" edge="1" source="jyAbrdyMVyRn_Ra9y4lu-20">
          <mxGeometry x="0.625" y="80" width="160" relative="1" as="geometry">
            <mxPoint x="453" y="563.53" as="sourcePoint" />
            <mxPoint x="396.9200000000001" y="491.0419999999999" as="targetPoint" />
            <mxPoint x="-1" as="offset" />
          </mxGeometry>
        </mxCell>
        <mxCell id="jyAbrdyMVyRn_Ra9y4lu-30" value="Jugador" style="swimlane;fontStyle=1;align=center;verticalAlign=top;childLayout=stackLayout;horizontal=1;startSize=26;horizontalStack=0;resizeParent=1;resizeParentMax=0;resizeLast=0;collapsible=1;marginBottom=0;whiteSpace=wrap;html=1;" parent="1" vertex="1">
          <mxGeometry x="161.5" y="728" width="411" height="225" as="geometry">
            <mxRectangle x="570" y="270" width="80" height="30" as="alternateBounds" />
          </mxGeometry>
        </mxCell>
        <mxCell id="jyAbrdyMVyRn_Ra9y4lu-31" value="&lt;div&gt;- nombre: str&lt;br&gt;&lt;/div&gt;&lt;div&gt;- tablero: &amp;lt;Tablero&amp;gt;&lt;/div&gt;&lt;div&gt;- patrullero: &amp;lt;Barco&amp;gt;&lt;/div&gt;&lt;div&gt;- submarino: &amp;lt;Barco&amp;gt;&lt;/div&gt;&lt;div&gt;- destructor: &amp;lt;Barco&amp;gt;&lt;/div&gt;&lt;div&gt;- portaaviones: &amp;lt;Barco&amp;gt;&lt;br&gt;&lt;/div&gt;&lt;div&gt;- consola: &amp;lt;Pantalla&amp;gt;&lt;/div&gt;&lt;div&gt;- List&amp;lt;Coordenadas&amp;gt; coordenadasLanzamientos&lt;br&gt;&lt;/div&gt;" style="text;strokeColor=none;fillColor=none;align=left;verticalAlign=top;spacingLeft=4;spacingRight=4;overflow=hidden;rotatable=0;points=[[0,0.5],[1,0.5]];portConstraint=eastwest;whiteSpace=wrap;html=1;" parent="jyAbrdyMVyRn_Ra9y4lu-30" vertex="1">
          <mxGeometry y="26" width="411" height="125" as="geometry" />
        </mxCell>
        <mxCell id="jyAbrdyMVyRn_Ra9y4lu-32" value="" style="line;strokeWidth=1;fillColor=none;align=left;verticalAlign=middle;spacingTop=-1;spacingLeft=3;spacingRight=3;rotatable=0;labelPosition=right;points=[];portConstraint=eastwest;strokeColor=inherit;" parent="jyAbrdyMVyRn_Ra9y4lu-30" vertex="1">
          <mxGeometry y="151" width="411" height="8" as="geometry" />
        </mxCell>
        <mxCell id="jyAbrdyMVyRn_Ra9y4lu-33" value="&lt;div&gt;+ NuevaPartida(string modo)&lt;/div&gt;&lt;div&gt;+ Atacar(string modo): &amp;lt;Coordenadas&amp;gt;&lt;br&gt;&lt;/div&gt;&lt;div&gt;+ EstadoBarcos(List&amp;lt;Coordenadas&amp;gt; coordenadasLanzamientosOponente, Coordenadas coordenadas, Tablero tableroOponente)&lt;br&gt;&lt;/div&gt;" style="text;strokeColor=none;fillColor=none;align=left;verticalAlign=top;spacingLeft=4;spacingRight=4;overflow=hidden;rotatable=0;points=[[0,0.5],[1,0.5]];portConstraint=eastwest;whiteSpace=wrap;html=1;" parent="jyAbrdyMVyRn_Ra9y4lu-30" vertex="1">
          <mxGeometry y="159" width="411" height="66" as="geometry" />
        </mxCell>
        <mxCell id="jyAbrdyMVyRn_Ra9y4lu-38" value="Barco" style="swimlane;fontStyle=1;align=center;verticalAlign=top;childLayout=stackLayout;horizontal=1;startSize=26;horizontalStack=0;resizeParent=1;resizeParentMax=0;resizeLast=0;collapsible=1;marginBottom=0;whiteSpace=wrap;html=1;" parent="1" vertex="1">
          <mxGeometry x="-4" y="998" width="360" height="274" as="geometry">
            <mxRectangle x="570" y="270" width="80" height="30" as="alternateBounds" />
          </mxGeometry>
        </mxCell>
        <mxCell id="jyAbrdyMVyRn_Ra9y4lu-39" value="&lt;div&gt;- tipo: str&lt;/div&gt;&lt;div&gt;- longitud: int&lt;/div&gt;&lt;div&gt;- orientacion: int&lt;/div&gt;&lt;div&gt;- nombreJugador: str&lt;/div&gt;&lt;div&gt;- consola: &amp;lt;Pantalla&amp;gt;&lt;/div&gt;&lt;div&gt;- tablero: &amp;lt;Tablero&amp;gt;&lt;/div&gt;&lt;div&gt;- coordenadas: &amp;lt;Coordenadas&amp;gt;&lt;/div&gt;&lt;div&gt;- hundido: bool&lt;/div&gt;&lt;div&gt;- contadorTocados: int&lt;br&gt;&lt;/div&gt;" style="text;strokeColor=none;fillColor=none;align=left;verticalAlign=top;spacingLeft=4;spacingRight=4;overflow=hidden;rotatable=0;points=[[0,0.5],[1,0.5]];portConstraint=eastwest;whiteSpace=wrap;html=1;" parent="jyAbrdyMVyRn_Ra9y4lu-38" vertex="1">
          <mxGeometry y="26" width="360" height="141" as="geometry" />
        </mxCell>
        <mxCell id="jyAbrdyMVyRn_Ra9y4lu-40" value="" style="line;strokeWidth=1;fillColor=none;align=left;verticalAlign=middle;spacingTop=-1;spacingLeft=3;spacingRight=3;rotatable=0;labelPosition=right;points=[];portConstraint=eastwest;strokeColor=inherit;" parent="jyAbrdyMVyRn_Ra9y4lu-38" vertex="1">
          <mxGeometry y="167" width="360" height="8" as="geometry" />
        </mxCell>
        <mxCell id="jyAbrdyMVyRn_Ra9y4lu-41" value="&lt;div&gt;+ NuevoBarco(string nombre, string modo)&lt;br&gt;&lt;/div&gt;&lt;div&gt;+ SeleccionarOrientacion(string modo)&lt;/div&gt;&lt;div&gt;+ IntroducirCoordenadas(string modo)&lt;/div&gt;&lt;div&gt;+ ColocarBarco()&lt;/div&gt;&lt;div&gt;+ EstadoHundido(List&amp;lt;Coordenadas&amp;gt; coordenadasLanzamientos, Coordenadas coordenadas, Tablero tableroOponente)&lt;br&gt;&lt;/div&gt;" style="text;strokeColor=none;fillColor=none;align=left;verticalAlign=top;spacingLeft=4;spacingRight=4;overflow=hidden;rotatable=0;points=[[0,0.5],[1,0.5]];portConstraint=eastwest;whiteSpace=wrap;html=1;" parent="jyAbrdyMVyRn_Ra9y4lu-38" vertex="1">
          <mxGeometry y="175" width="360" height="99" as="geometry" />
        </mxCell>
        <mxCell id="jyAbrdyMVyRn_Ra9y4lu-45" value="1" style="endArrow=open;html=1;endSize=12;startArrow=diamondThin;startSize=14;startFill=1;edgeStyle=orthogonalEdgeStyle;align=left;verticalAlign=bottom;rounded=0;entryX=0.501;entryY=-0.005;entryDx=0;entryDy=0;entryPerimeter=0;" parent="1" edge="1" target="jyAbrdyMVyRn_Ra9y4lu-10">
          <mxGeometry x="-0.3655" y="3" relative="1" as="geometry">
            <mxPoint x="353" y="218" as="sourcePoint" />
            <mxPoint x="353" y="291" as="targetPoint" />
            <Array as="points">
              <mxPoint x="353" y="270" />
              <mxPoint x="354" y="270" />
            </Array>
            <mxPoint as="offset" />
          </mxGeometry>
        </mxCell>
        <mxCell id="gGxI-NtQGztBr9ycgwbB-2" value="Coordenadas" style="swimlane;fontStyle=1;align=center;verticalAlign=top;childLayout=stackLayout;horizontal=1;startSize=26;horizontalStack=0;resizeParent=1;resizeParentMax=0;resizeLast=0;collapsible=1;marginBottom=0;whiteSpace=wrap;html=1;" parent="1" vertex="1">
          <mxGeometry x="88" y="1319" width="515" height="208" as="geometry">
            <mxRectangle x="570" y="270" width="80" height="30" as="alternateBounds" />
          </mxGeometry>
        </mxCell>
        <mxCell id="gGxI-NtQGztBr9ycgwbB-3" value="&lt;div&gt;- x: int[]&lt;/div&gt;&lt;div&gt;- y: int[]&lt;/div&gt;&lt;div&gt;&lt;br&gt;&lt;/div&gt;&lt;div&gt;&lt;br&gt;&lt;/div&gt;" style="text;strokeColor=none;fillColor=none;align=left;verticalAlign=top;spacingLeft=4;spacingRight=4;overflow=hidden;rotatable=0;points=[[0,0.5],[1,0.5]];portConstraint=eastwest;whiteSpace=wrap;html=1;" parent="gGxI-NtQGztBr9ycgwbB-2" vertex="1">
          <mxGeometry y="26" width="515" height="44" as="geometry" />
        </mxCell>
        <mxCell id="gGxI-NtQGztBr9ycgwbB-4" value="" style="line;strokeWidth=1;fillColor=none;align=left;verticalAlign=middle;spacingTop=-1;spacingLeft=3;spacingRight=3;rotatable=0;labelPosition=right;points=[];portConstraint=eastwest;strokeColor=inherit;" parent="gGxI-NtQGztBr9ycgwbB-2" vertex="1">
          <mxGeometry y="70" width="515" height="8" as="geometry" />
        </mxCell>
        <mxCell id="gGxI-NtQGztBr9ycgwbB-5" value="&lt;div style=&quot;border-color: var(--border-color);&quot;&gt;+ ControlIntroducirCoordenadas(int orientacion, int longitud, Pantalla consola, Tablero tablero, string[] opciones, string objeto, bool mostrarOponente, string modo, string nombreJugador)&lt;/div&gt;&lt;div style=&quot;border-color: var(--border-color);&quot;&gt;+ IntroducirCoordenadas(int orientacion, int longitud, Pantalla consola, string[] opciones, string objeto, int indice, string tipo, string modo): int&lt;/div&gt;&lt;div style=&quot;border-color: var(--border-color);&quot;&gt;+ ComprobarCoordenadasCoincidentes(Tablero tablero, ref int indice, string modo): bool&lt;/div&gt;&lt;div style=&quot;border-color: var(--border-color);&quot;&gt;+ TextoCoincidencia(string objeto, bool coincideConAlgo, int indice, string[] opciones, Pantalla consola, Tablero tablero, string modo)&lt;/div&gt;&lt;div style=&quot;border-color: var(--border-color);&quot;&gt;+ BuscarEntidad(List&amp;lt;Coordenadas&amp;gt; listacoordenadas): bool&lt;/div&gt;" style="text;strokeColor=none;fillColor=none;align=left;verticalAlign=top;spacingLeft=4;spacingRight=4;overflow=hidden;rotatable=0;points=[[0,0.5],[1,0.5]];portConstraint=eastwest;whiteSpace=wrap;html=1;" parent="gGxI-NtQGztBr9ycgwbB-2" vertex="1">
          <mxGeometry y="78" width="515" height="130" as="geometry" />
        </mxCell>
        <mxCell id="gGxI-NtQGztBr9ycgwbB-10" value="1" style="endArrow=open;html=1;endSize=12;startArrow=diamondThin;startSize=14;startFill=1;edgeStyle=orthogonalEdgeStyle;align=left;verticalAlign=bottom;rounded=0;" parent="1" source="jyAbrdyMVyRn_Ra9y4lu-41" edge="1">
          <mxGeometry x="-0.6182" y="8" relative="1" as="geometry">
            <mxPoint x="197.98" y="1264" as="sourcePoint" />
            <mxPoint x="262" y="1320" as="targetPoint" />
            <Array as="points">
              <mxPoint x="200" y="1297" />
              <mxPoint x="262" y="1297" />
            </Array>
            <mxPoint as="offset" />
          </mxGeometry>
        </mxCell>
        <mxCell id="gGxI-NtQGztBr9ycgwbB-11" value="1" style="endArrow=open;html=1;endSize=12;startArrow=diamondThin;startSize=14;startFill=1;edgeStyle=orthogonalEdgeStyle;align=left;verticalAlign=bottom;rounded=0;entryX=0.656;entryY=-0.002;entryDx=0;entryDy=0;exitX=0.568;exitY=1.026;exitDx=0;exitDy=0;exitPerimeter=0;entryPerimeter=0;" parent="1" edge="1" target="gGxI-NtQGztBr9ycgwbB-2">
          <mxGeometry x="-0.7377" y="10" relative="1" as="geometry">
            <mxPoint x="528.8800000000001" y="1243.002" as="sourcePoint" />
            <mxPoint x="426" y="1308.95" as="targetPoint" />
            <Array as="points">
              <mxPoint x="529" y="1289" />
              <mxPoint x="426" y="1289" />
            </Array>
            <mxPoint as="offset" />
          </mxGeometry>
        </mxCell>
        <mxCell id="GoUTHMmDtmHfQI_IRZL0-1" value="1" style="endArrow=open;html=1;endSize=12;startArrow=diamondThin;startSize=14;startFill=1;edgeStyle=orthogonalEdgeStyle;align=left;verticalAlign=bottom;rounded=0;entryX=0.65;entryY=0.004;entryDx=0;entryDy=0;exitX=0.471;exitY=0.999;exitDx=0;exitDy=0;exitPerimeter=0;entryPerimeter=0;" edge="1" parent="1" target="jyAbrdyMVyRn_Ra9y4lu-30">
          <mxGeometry x="-0.4923" y="7" relative="1" as="geometry">
            <mxPoint x="447" y="676" as="sourcePoint" />
            <mxPoint x="520" y="774" as="targetPoint" />
            <Array as="points">
              <mxPoint x="447" y="703" />
              <mxPoint x="429" y="703" />
              <mxPoint x="429" y="712" />
            </Array>
            <mxPoint as="offset" />
          </mxGeometry>
        </mxCell>
        <mxCell id="GoUTHMmDtmHfQI_IRZL0-2" value="&lt;font style=&quot;font-size: 11px;&quot;&gt;1..*&lt;/font&gt;" style="text;html=1;align=center;verticalAlign=middle;resizable=0;points=[];autosize=1;strokeColor=none;fillColor=none;" vertex="1" parent="1">
          <mxGeometry x="429" y="698" width="40" height="30" as="geometry" />
        </mxCell>
        <mxCell id="GoUTHMmDtmHfQI_IRZL0-7" value="1" style="endArrow=open;html=1;endSize=12;startArrow=diamondThin;startSize=14;startFill=1;edgeStyle=orthogonalEdgeStyle;align=left;verticalAlign=bottom;rounded=0;entryX=0.65;entryY=0.004;entryDx=0;entryDy=0;exitX=0.591;exitY=0.999;exitDx=0;exitDy=0;exitPerimeter=0;entryPerimeter=0;" edge="1" parent="1" source="jyAbrdyMVyRn_Ra9y4lu-27">
          <mxGeometry x="-0.4923" y="7" relative="1" as="geometry">
            <mxPoint x="270" y="676" as="sourcePoint" />
            <mxPoint x="252" y="729" as="targetPoint" />
            <Array as="points">
              <mxPoint x="269" y="703" />
              <mxPoint x="252" y="703" />
            </Array>
            <mxPoint as="offset" />
          </mxGeometry>
        </mxCell>
        <mxCell id="GoUTHMmDtmHfQI_IRZL0-8" value="&lt;font style=&quot;font-size: 11px;&quot;&gt;1..*&lt;/font&gt;" style="text;html=1;align=center;verticalAlign=middle;resizable=0;points=[];autosize=1;strokeColor=none;fillColor=none;" vertex="1" parent="1">
          <mxGeometry x="252" y="698" width="40" height="30" as="geometry" />
        </mxCell>
        <mxCell id="GoUTHMmDtmHfQI_IRZL0-11" value="1" style="endArrow=open;html=1;endSize=12;startArrow=diamondThin;startSize=14;startFill=1;edgeStyle=orthogonalEdgeStyle;align=left;verticalAlign=bottom;rounded=0;exitX=0.591;exitY=0.999;exitDx=0;exitDy=0;exitPerimeter=0;" edge="1" parent="1">
          <mxGeometry x="-0.4923" y="7" relative="1" as="geometry">
            <mxPoint x="262" y="953" as="sourcePoint" />
            <mxPoint x="245" y="999" as="targetPoint" />
            <Array as="points">
              <mxPoint x="262" y="979" />
              <mxPoint x="245" y="979" />
            </Array>
            <mxPoint as="offset" />
          </mxGeometry>
        </mxCell>
        <mxCell id="GoUTHMmDtmHfQI_IRZL0-12" value="1" style="endArrow=open;html=1;endSize=12;startArrow=diamondThin;startSize=14;startFill=1;edgeStyle=orthogonalEdgeStyle;align=left;verticalAlign=bottom;rounded=0;exitX=0.591;exitY=0.999;exitDx=0;exitDy=0;exitPerimeter=0;" edge="1" parent="1">
          <mxGeometry x="-0.4923" y="7" relative="1" as="geometry">
            <mxPoint x="454" y="953" as="sourcePoint" />
            <mxPoint x="437" y="999" as="targetPoint" />
            <Array as="points">
              <mxPoint x="454" y="979" />
              <mxPoint x="437" y="979" />
            </Array>
            <mxPoint as="offset" />
          </mxGeometry>
        </mxCell>
      </root>
    </mxGraphModel>
  </diagram>
  <diagram name="Diagrama flujo partida" id="nE6SQh_9mPt-RH_e9oq_">
    <mxGraphModel dx="1050" dy="608" grid="1" gridSize="10" guides="1" tooltips="1" connect="1" arrows="1" fold="1" page="1" pageScale="1" pageWidth="827" pageHeight="1169" math="0" shadow="0">
      <root>
        <mxCell id="0" />
        <mxCell id="1" parent="0" />
        <mxCell id="0YU5Nxv_O9lePL7lx6OY-13" value="Fase de configuración" style="whiteSpace=wrap;html=1;" parent="1" vertex="1">
          <mxGeometry x="204" y="220" width="370" height="50" as="geometry" />
        </mxCell>
        <mxCell id="0YU5Nxv_O9lePL7lx6OY-14" value="Fase de finalización" style="whiteSpace=wrap;html=1;" parent="1" vertex="1">
          <mxGeometry x="205" y="800" width="370" height="70" as="geometry" />
        </mxCell>
        <mxCell id="0YU5Nxv_O9lePL7lx6OY-15" value="" style="whiteSpace=wrap;html=1;" parent="1" vertex="1">
          <mxGeometry x="204" y="290" width="370" height="490" as="geometry" />
        </mxCell>
        <mxCell id="0YU5Nxv_O9lePL7lx6OY-16" value="" style="whiteSpace=wrap;html=1;" parent="1" vertex="1">
          <mxGeometry x="234" y="410" width="310" height="340" as="geometry" />
        </mxCell>
        <mxCell id="0YU5Nxv_O9lePL7lx6OY-27" style="edgeStyle=orthogonalEdgeStyle;rounded=0;orthogonalLoop=1;jettySize=auto;html=1;exitX=0.5;exitY=1;exitDx=0;exitDy=0;strokeColor=#FF6666;" parent="1" source="0YU5Nxv_O9lePL7lx6OY-17" target="0YU5Nxv_O9lePL7lx6OY-18" edge="1">
          <mxGeometry relative="1" as="geometry" />
        </mxCell>
        <mxCell id="0YU5Nxv_O9lePL7lx6OY-40" style="edgeStyle=orthogonalEdgeStyle;rounded=0;orthogonalLoop=1;jettySize=auto;html=1;exitX=1;exitY=0.5;exitDx=0;exitDy=0;entryX=1.002;entryY=0.87;entryDx=0;entryDy=0;entryPerimeter=0;strokeColor=#8AC44F;" parent="1" source="0YU5Nxv_O9lePL7lx6OY-17" target="0YU5Nxv_O9lePL7lx6OY-14" edge="1">
          <mxGeometry relative="1" as="geometry">
            <Array as="points">
              <mxPoint x="624" y="475" />
              <mxPoint x="624" y="861" />
            </Array>
          </mxGeometry>
        </mxCell>
        <mxCell id="0YU5Nxv_O9lePL7lx6OY-17" value="Jugador 1" style="whiteSpace=wrap;html=1;" parent="1" vertex="1">
          <mxGeometry x="268.5" y="460" width="240" height="30" as="geometry" />
        </mxCell>
        <mxCell id="0YU5Nxv_O9lePL7lx6OY-28" style="edgeStyle=orthogonalEdgeStyle;rounded=0;orthogonalLoop=1;jettySize=auto;html=1;exitX=0.5;exitY=1;exitDx=0;exitDy=0;entryX=0.5;entryY=0;entryDx=0;entryDy=0;strokeColor=#FF6666;" parent="1" source="0YU5Nxv_O9lePL7lx6OY-18" target="0YU5Nxv_O9lePL7lx6OY-19" edge="1">
          <mxGeometry relative="1" as="geometry" />
        </mxCell>
        <mxCell id="0YU5Nxv_O9lePL7lx6OY-38" style="edgeStyle=orthogonalEdgeStyle;rounded=0;orthogonalLoop=1;jettySize=auto;html=1;exitX=1;exitY=0.5;exitDx=0;exitDy=0;entryX=1.002;entryY=0.441;entryDx=0;entryDy=0;strokeColor=#FF6666;entryPerimeter=0;" parent="1" source="0YU5Nxv_O9lePL7lx6OY-18" target="0YU5Nxv_O9lePL7lx6OY-14" edge="1">
          <mxGeometry relative="1" as="geometry">
            <Array as="points">
              <mxPoint x="604" y="548" />
              <mxPoint x="604" y="831" />
            </Array>
          </mxGeometry>
        </mxCell>
        <mxCell id="0YU5Nxv_O9lePL7lx6OY-18" value="" style="rhombus;whiteSpace=wrap;html=1;" parent="1" vertex="1">
          <mxGeometry x="361" y="520" width="55" height="55" as="geometry" />
        </mxCell>
        <mxCell id="0YU5Nxv_O9lePL7lx6OY-29" style="edgeStyle=orthogonalEdgeStyle;rounded=0;orthogonalLoop=1;jettySize=auto;html=1;exitX=0.5;exitY=1;exitDx=0;exitDy=0;entryX=0.5;entryY=0;entryDx=0;entryDy=0;strokeColor=#FF6666;" parent="1" source="0YU5Nxv_O9lePL7lx6OY-19" target="0YU5Nxv_O9lePL7lx6OY-20" edge="1">
          <mxGeometry relative="1" as="geometry" />
        </mxCell>
        <mxCell id="0YU5Nxv_O9lePL7lx6OY-39" style="edgeStyle=orthogonalEdgeStyle;rounded=0;orthogonalLoop=1;jettySize=auto;html=1;exitX=1;exitY=0.5;exitDx=0;exitDy=0;entryX=1.003;entryY=0.638;entryDx=0;entryDy=0;strokeColor=#8AC44F;entryPerimeter=0;" parent="1" source="0YU5Nxv_O9lePL7lx6OY-19" target="0YU5Nxv_O9lePL7lx6OY-14" edge="1">
          <mxGeometry relative="1" as="geometry">
            <Array as="points">
              <mxPoint x="614" y="625" />
              <mxPoint x="614" y="845" />
            </Array>
          </mxGeometry>
        </mxCell>
        <mxCell id="0YU5Nxv_O9lePL7lx6OY-19" value="&lt;div&gt;Jugador 2&lt;/div&gt;" style="whiteSpace=wrap;html=1;" parent="1" vertex="1">
          <mxGeometry x="269.5" y="610" width="240" height="30" as="geometry" />
        </mxCell>
        <mxCell id="0YU5Nxv_O9lePL7lx6OY-23" style="edgeStyle=orthogonalEdgeStyle;rounded=0;orthogonalLoop=1;jettySize=auto;html=1;exitX=0.5;exitY=1;exitDx=0;exitDy=0;strokeColor=#FF6666;entryX=-0.003;entryY=0.335;entryDx=0;entryDy=0;entryPerimeter=0;" parent="1" source="0YU5Nxv_O9lePL7lx6OY-20" target="0YU5Nxv_O9lePL7lx6OY-21" edge="1">
          <mxGeometry relative="1" as="geometry">
            <mxPoint x="230" y="350" as="targetPoint" />
            <Array as="points">
              <mxPoint x="389" y="760" />
              <mxPoint x="214" y="760" />
              <mxPoint x="214" y="350" />
            </Array>
          </mxGeometry>
        </mxCell>
        <mxCell id="0YU5Nxv_O9lePL7lx6OY-37" style="edgeStyle=orthogonalEdgeStyle;rounded=0;orthogonalLoop=1;jettySize=auto;html=1;exitX=1;exitY=0.5;exitDx=0;exitDy=0;entryX=1.002;entryY=0.253;entryDx=0;entryDy=0;strokeColor=#FF6666;entryPerimeter=0;" parent="1" source="0YU5Nxv_O9lePL7lx6OY-20" target="0YU5Nxv_O9lePL7lx6OY-14" edge="1">
          <mxGeometry relative="1" as="geometry" />
        </mxCell>
        <mxCell id="0YU5Nxv_O9lePL7lx6OY-20" value="" style="rhombus;whiteSpace=wrap;html=1;" parent="1" vertex="1">
          <mxGeometry x="361" y="670" width="55" height="55" as="geometry" />
        </mxCell>
        <mxCell id="0YU5Nxv_O9lePL7lx6OY-25" style="edgeStyle=orthogonalEdgeStyle;rounded=0;orthogonalLoop=1;jettySize=auto;html=1;exitX=0.5;exitY=1;exitDx=0;exitDy=0;strokeColor=#FF6666;" parent="1" source="0YU5Nxv_O9lePL7lx6OY-21" target="0YU5Nxv_O9lePL7lx6OY-17" edge="1">
          <mxGeometry relative="1" as="geometry" />
        </mxCell>
        <mxCell id="0YU5Nxv_O9lePL7lx6OY-21" value="Inicio de jugada" style="whiteSpace=wrap;html=1;" parent="1" vertex="1">
          <mxGeometry x="234" y="340" width="310" height="30" as="geometry" />
        </mxCell>
        <mxCell id="0YU5Nxv_O9lePL7lx6OY-22" style="edgeStyle=orthogonalEdgeStyle;rounded=0;orthogonalLoop=1;jettySize=auto;html=1;exitX=0.5;exitY=1;exitDx=0;exitDy=0;strokeColor=#FF6666;" parent="1" source="0YU5Nxv_O9lePL7lx6OY-13" edge="1">
          <mxGeometry relative="1" as="geometry">
            <mxPoint x="389" y="280" as="sourcePoint" />
            <mxPoint x="389" y="340" as="targetPoint" />
          </mxGeometry>
        </mxCell>
        <mxCell id="0YU5Nxv_O9lePL7lx6OY-24" value="Fase de juego" style="text;html=1;strokeColor=none;fillColor=none;align=center;verticalAlign=middle;whiteSpace=wrap;rounded=0;" parent="1" vertex="1">
          <mxGeometry x="468" y="300" width="100" height="30" as="geometry" />
        </mxCell>
        <mxCell id="0YU5Nxv_O9lePL7lx6OY-26" value="Jugada" style="text;html=1;strokeColor=none;fillColor=none;align=center;verticalAlign=middle;whiteSpace=wrap;rounded=0;" parent="1" vertex="1">
          <mxGeometry x="444" y="420" width="100" height="30" as="geometry" />
        </mxCell>
        <mxCell id="0YU5Nxv_O9lePL7lx6OY-41" value="Finalizar Partida" style="text;html=1;strokeColor=none;fillColor=none;align=center;verticalAlign=middle;whiteSpace=wrap;rounded=0;" parent="1" vertex="1">
          <mxGeometry x="254" y="532.5" width="100" height="30" as="geometry" />
        </mxCell>
        <mxCell id="0YU5Nxv_O9lePL7lx6OY-42" value="Finalizar Partida" style="text;html=1;strokeColor=none;fillColor=none;align=center;verticalAlign=middle;whiteSpace=wrap;rounded=0;" parent="1" vertex="1">
          <mxGeometry x="254" y="682.5" width="100" height="30" as="geometry" />
        </mxCell>
        <mxCell id="0YU5Nxv_O9lePL7lx6OY-43" value="Si" style="text;html=1;strokeColor=none;fillColor=none;align=center;verticalAlign=middle;whiteSpace=wrap;rounded=0;" parent="1" vertex="1">
          <mxGeometry x="416" y="520" width="30" height="30" as="geometry" />
        </mxCell>
        <mxCell id="0YU5Nxv_O9lePL7lx6OY-44" value="No" style="text;html=1;strokeColor=none;fillColor=none;align=center;verticalAlign=middle;whiteSpace=wrap;rounded=0;" parent="1" vertex="1">
          <mxGeometry x="394" y="575" width="30" height="30" as="geometry" />
        </mxCell>
        <mxCell id="0YU5Nxv_O9lePL7lx6OY-45" value="Si" style="text;html=1;strokeColor=none;fillColor=none;align=center;verticalAlign=middle;whiteSpace=wrap;rounded=0;" parent="1" vertex="1">
          <mxGeometry x="416" y="670" width="30" height="30" as="geometry" />
        </mxCell>
        <mxCell id="0YU5Nxv_O9lePL7lx6OY-46" value="No" style="text;html=1;strokeColor=none;fillColor=none;align=center;verticalAlign=middle;whiteSpace=wrap;rounded=0;" parent="1" vertex="1">
          <mxGeometry x="394" y="720" width="30" height="30" as="geometry" />
        </mxCell>
        <mxCell id="0YU5Nxv_O9lePL7lx6OY-47" value="" style="whiteSpace=wrap;html=1;strokeColor=#FF3333;fillColor=#FFCCCC;" parent="1" vertex="1">
          <mxGeometry x="205" y="890" width="9" height="10" as="geometry" />
        </mxCell>
        <mxCell id="0YU5Nxv_O9lePL7lx6OY-48" value="" style="whiteSpace=wrap;html=1;strokeColor=#8AC44F;fillColor=#E6FFCC;" parent="1" vertex="1">
          <mxGeometry x="205" y="910" width="9" height="10" as="geometry" />
        </mxCell>
        <mxCell id="0YU5Nxv_O9lePL7lx6OY-49" value="Ejecución normal" style="text;html=1;strokeColor=none;fillColor=none;align=center;verticalAlign=middle;whiteSpace=wrap;rounded=0;" parent="1" vertex="1">
          <mxGeometry x="214" y="880" width="100" height="30" as="geometry" />
        </mxCell>
        <mxCell id="0YU5Nxv_O9lePL7lx6OY-50" value="Victoria" style="text;html=1;strokeColor=none;fillColor=none;align=center;verticalAlign=middle;whiteSpace=wrap;rounded=0;" parent="1" vertex="1">
          <mxGeometry x="214" y="900" width="50" height="30" as="geometry" />
        </mxCell>
      </root>
    </mxGraphModel>
  </diagram>
</mxfile>
